<svg width="19" height="18" viewBox="0 0 19 18" fill="none" xmlns="http://www.w3.org/2000/svg">
<path d="M12.5939 12.3328L9.50332 8.99898M9.50332 8.99898L6.41269 12.3328M9.50332 8.99898V16.5M15.9859 14.3247C16.7395 13.8815 17.3348 13.1803 17.6779 12.3316C18.021 11.4829 18.0923 10.5352 17.8806 9.63796C17.6689 8.74073 17.1862 7.94509 16.5087 7.37662C15.8313 6.80816 14.9976 6.49924 14.1393 6.49863H13.1657C12.9319 5.52287 12.496 4.61699 11.8908 3.8491C11.2856 3.08121 10.527 2.47129 9.67185 2.0652C8.81672 1.65911 7.88736 1.46741 6.95366 1.50452C6.01996 1.54163 5.1062 1.80658 4.28109 2.27945C3.45598 2.75231 2.74098 3.4208 2.18985 4.23464C1.63873 5.04848 1.26581 5.98651 1.09914 6.97819C0.932471 7.96987 0.976385 8.98941 1.22758 9.96015C1.47878 10.9309 1.93072 11.8276 2.54943 12.5828" stroke="#475467" stroke-width="2" stroke-linecap="round" stroke-linejoin="round"/>
</svg>
